<?xml version="1.0" encoding="utf-8"?>
<!-- Generator: Adobe Illustrator 26.2.1, SVG Export Plug-In . SVG Version: 6.00 Build 0)  -->
<svg version="1.1" id="Calque_1" xmlns="http://www.w3.org/2000/svg" xmlns:xlink="http://www.w3.org/1999/xlink" x="0px" y="0px"
	 viewBox="0 0 260 45" style="enable-background:new 0 0 260 45;" xml:space="preserve">
<style type="text/css">
	.st0{fill:none;}
	.st1{fill:url(#SVGID_1_);}
	.st2{fill:url(#SVGID_00000022544606383658937660000013988879871947657383_);}
	.st3{fill:#120641;}
</style>
<g>
	<path class="st0" d="M37.6,45"/>
</g>
<linearGradient id="SVGID_1_" gradientUnits="userSpaceOnUse" x1="0" y1="23.5" x2="57.1" y2="23.5" gradientTransform="matrix(1 0 0 -1 0 46)">
	<stop  offset="0" style="stop-color:#00CDAC"/>
	<stop  offset="1" style="stop-color:#02AAB0"/>
	<stop  offset="1" style="stop-color:#02A9AE"/>
</linearGradient>
<polyline class="st1" points="37.6,45 37.6,10.3 11,18.1 11,15.5 43.4,4.9 43.4,45 46.7,45 46.7,16.1 53.8,14.6 53.8,45 57.1,45 
	57.1,10 46.7,12.4 46.7,0 7.6,13.9 7.6,19.2 0,21.4 0,45 3.3,45 3.4,23.6 34.3,15.7 34.3,45 37.6,45 "/>
<linearGradient id="SVGID_00000139258196003604874630000012581479755166075306_" gradientUnits="userSpaceOnUse" x1="10.1564" y1="-1023.15" x2="28.0305" y2="-1023.15" gradientTransform="matrix(1 0 0 -1 0 -988)">
	<stop  offset="0" style="stop-color:#00CDAC"/>
	<stop  offset="1" style="stop-color:#01B8AE"/>
</linearGradient>
<polygon style="fill:url(#SVGID_00000139258196003604874630000012581479755166075306_);" points="10.2,44.8 10.2,28.7 28.1,25.5 
	28.1,44.8 "/>
<g>
	<path class="st3" d="M86.9,24.2c-0.5-0.4-1-0.6-1.6-0.9c-0.5-0.2-1-0.4-1.4-0.4l-3.8-1.1c-0.5-0.1-1-0.4-1.6-0.6
		c-0.5-0.2-1-0.5-1.4-0.9c-0.4-0.4-0.6-0.9-0.6-1.6c0-0.6,0.2-1.2,0.6-1.7c0.4-0.5,0.9-0.9,1.6-1.1c0.6-0.3,1.4-0.4,2.3-0.4
		c0.9,0,1.7,0.2,2.4,0.5c0.7,0.4,1.4,0.8,1.9,1.4s0.8,1.4,0.9,2.1l2.1-0.4c-0.2-1.1-0.6-2.1-1.3-3c-0.6-0.9-1.5-1.5-2.5-1.9
		c-1-0.4-2.1-0.7-3.4-0.7s-2.4,0.2-3.4,0.6c-1,0.4-1.8,1-2.4,1.9s-0.9,1.7-0.9,2.8c0,0.6,0.1,1.2,0.3,1.7c0.2,0.5,0.5,0.9,0.9,1.3
		c0.4,0.4,0.8,0.7,1.3,0.9c0.5,0.3,1.1,0.5,1.6,0.6l4.9,1.4c0.4,0.1,0.6,0.2,1,0.4s0.6,0.4,0.9,0.6c0.3,0.2,0.5,0.5,0.7,0.9
		c0.1,0.4,0.3,0.8,0.3,1.3c0,0.8-0.2,1.4-0.6,1.9c-0.4,0.6-1,1-1.8,1.3c-0.7,0.3-1.6,0.4-2.5,0.4c-1.4,0-2.6-0.4-3.7-1.1
		c-1.1-0.7-1.7-1.7-2-2.9l-2,0.4c0.2,1.1,0.6,2.1,1.4,2.9c0.7,0.8,1.6,1.4,2.6,1.9c1.1,0.5,2.3,0.6,3.6,0.6c1,0,1.9-0.1,2.8-0.4
		c0.9-0.3,1.6-0.6,2.2-1.1c0.6-0.5,1.1-1.1,1.5-1.8c0.4-0.7,0.5-1.5,0.5-2.4c0-0.9-0.1-1.6-0.5-2.3C87.6,24.9,87.4,24.6,86.9,24.2z"
		/>
	<path class="st3" d="M101.7,20.8c-0.4-0.6-0.9-1-1.4-1.4c-0.9-0.6-2.1-1-3.4-1c-1.3,0-2.4,0.4-3.4,1c-0.9,0.6-1.6,1.6-2.1,2.7
		s-0.8,2.4-0.8,3.9c0,1.4,0.3,2.7,0.8,3.9c0.5,1.1,1.2,2.1,2.2,2.7c0.9,0.6,2.1,1,3.4,1c1.4,0,2.4-0.4,3.4-1
		c0.4-0.3,0.8-0.7,1.1-1.1v8.1h2V18.7h-1.8L101.7,20.8L101.7,20.8z M99.7,31c-0.6,0.5-1.5,0.7-2.5,0.7c-1,0-1.9-0.3-2.5-0.8
		c-0.6-0.5-1.1-1.2-1.5-2.1c-0.4-0.9-0.5-1.9-0.5-2.9c0-1.1,0.1-2.1,0.5-2.9c0.4-0.9,0.9-1.6,1.5-2.1c0.6-0.5,1.5-0.8,2.6-0.8
		c1,0,1.9,0.2,2.5,0.7c0.6,0.5,1.1,1.1,1.5,2c0.4,0.9,0.5,1.9,0.5,3c0,1.1-0.1,2.1-0.5,3C100.9,29.8,100.3,30.5,99.7,31z"/>
	<path class="st3" d="M117.2,26.4c0,0.8-0.1,1.5-0.3,2.1c-0.2,0.6-0.4,1.2-0.8,1.6c-0.4,0.4-0.8,0.8-1.4,1c-0.5,0.2-1.1,0.4-1.9,0.4
		c-0.8,0-1.4-0.1-1.9-0.4c-0.5-0.3-0.9-0.6-1.3-1.1c-0.4-0.5-0.6-1.1-0.7-1.8c-0.1-0.6-0.2-1.4-0.2-2.2v-7.4h-2v7.9
		c0,0.6,0.1,1.3,0.2,1.9c0.1,0.6,0.4,1.3,0.6,1.9c0.3,0.6,0.6,1.1,1.1,1.6c0.4,0.4,1,0.8,1.6,1.1c0.6,0.3,1.4,0.4,2.3,0.4
		c1.1,0,2.2-0.3,3.1-0.8c0.7-0.4,1.3-0.9,1.7-1.6v2h1.8V18.7h-2V26.4z"/>
	<path class="st3" d="M133.8,21.3c-0.4-0.9-1-1.6-1.9-2.1c-0.9-0.5-2-0.7-3.4-0.7c-1.6,0-2.9,0.4-3.9,1.1s-1.6,1.7-2,3l1.9,0.6
		c0.3-0.9,0.8-1.6,1.4-2.1c0.7-0.4,1.5-0.6,2.5-0.6c1.4,0,2.4,0.4,3,1c0.5,0.6,0.8,1.6,0.8,2.9c-0.5,0.1-1,0.1-1.5,0.2
		c-0.9,0.1-1.7,0.2-2.6,0.4c-0.9,0.1-1.7,0.1-2.4,0.4c-0.7,0.2-1.4,0.4-1.9,0.8c-0.6,0.4-1,0.8-1.3,1.4c-0.3,0.6-0.5,1.2-0.5,2
		c0,0.8,0.2,1.5,0.6,2.1s0.9,1.1,1.6,1.6c0.7,0.4,1.6,0.6,2.7,0.6c1.4,0,2.6-0.4,3.7-1c0.7-0.4,1.3-1.1,1.8-1.8v2.4h1.7v-8.9
		c0-0.5,0-1.1-0.1-1.6C134.2,22.1,134,21.7,133.8,21.3z M132.2,28.1c-0.1,0.7-0.4,1.4-0.8,1.9c-0.4,0.6-1,1-1.6,1.4
		c-0.7,0.4-1.5,0.5-2.4,0.5c-0.8,0-1.4-0.1-1.9-0.4c-0.5-0.3-0.8-0.6-1-1c-0.2-0.4-0.3-0.8-0.3-1.2c0-0.5,0.1-0.9,0.4-1.3
		c0.2-0.4,0.6-0.6,0.9-0.9c0.4-0.2,0.8-0.4,1.2-0.5c0.6-0.1,1.3-0.3,2-0.4c0.7-0.1,1.5-0.2,2.3-0.3c0.5-0.1,0.9-0.1,1.4-0.1
		c0,0.2,0,0.5,0,0.8C132.3,27.1,132.2,27.6,132.2,28.1z"/>
	<path class="st3" d="M141.9,19c-0.5,0.1-0.9,0.4-1.3,0.8c-0.3,0.2-0.6,0.5-0.9,0.9c-0.1,0.1-0.2,0.3-0.3,0.4v-2.3h-1.8v14.4h1.9V26
		c0-0.6,0.1-1.1,0.1-1.7c0.1-0.6,0.2-1.1,0.5-1.6c0.2-0.5,0.6-1,1.1-1.4c0.5-0.4,1.1-0.6,1.7-0.7c0.6-0.1,1.2-0.1,1.7,0.1v-1.9
		c-0.4-0.1-0.9-0.1-1.4-0.1C142.9,18.7,142.4,18.8,141.9,19z"/>
	<path class="st3" d="M158.6,26.5h1.1c0.1-1.7-0.2-3.1-0.7-4.4c-0.5-1.2-1.3-2.1-2.3-2.8c-1-0.6-2.2-1-3.6-1c-1.4,0-2.6,0.3-3.6,0.9
		c-1,0.6-1.8,1.5-2.4,2.6c-0.6,1.1-0.9,2.5-0.9,4.1c0,1.5,0.3,2.9,0.9,4c0.6,1.1,1.4,2,2.4,2.6s2.2,0.9,3.6,0.9c1.4,0,2.6-0.4,3.7-1
		c1.1-0.7,1.9-1.6,2.5-2.9l-1.9-0.7c-0.4,0.9-1.1,1.6-1.8,2.1c-0.8,0.5-1.6,0.7-2.7,0.7c-1.5,0-2.6-0.5-3.5-1.5
		c-0.7-0.9-1.1-2.1-1.2-3.6h9.3L158.6,26.5L158.6,26.5z M149.6,21.7c0.8-1,2-1.5,3.6-1.5c1.5,0,2.6,0.5,3.4,1.4
		c0.6,0.8,1,1.9,1.1,3.3h-9.2C148.5,23.6,148.9,22.5,149.6,21.7z"/>
	<polygon class="st3" points="162.6,33.1 166.2,33.1 166.2,25.4 172.7,25.4 172.7,21.8 166.2,21.8 166.2,17.6 174.3,17.6 174.3,14 
		162.6,14 	"/>
	<path class="st3" d="M187.7,21c-0.5-0.9-1.3-1.6-2.2-2c-1-0.4-2.1-0.6-3.4-0.6c-1.7,0-3.1,0.4-4.1,1.1c-1,0.7-1.7,1.7-2.1,2.9
		l3.3,1.1c0.2-0.6,0.6-1.1,1.2-1.4c0.6-0.3,1.1-0.4,1.6-0.4c0.9,0,1.6,0.2,2.1,0.6c0.3,0.3,0.5,0.8,0.6,1.4
		c-0.6,0.1-1.2,0.1-1.7,0.3c-0.9,0.1-1.8,0.3-2.5,0.4c-0.7,0.1-1.4,0.4-1.9,0.5c-0.8,0.3-1.4,0.6-1.9,1.1c-0.5,0.4-0.8,0.9-1,1.4
		c-0.2,0.6-0.3,1.1-0.3,1.9c0,0.8,0.2,1.5,0.6,2.2c0.4,0.6,0.9,1.2,1.6,1.6c0.7,0.4,1.6,0.6,2.6,0.6c1.2,0,2.3-0.2,3.1-0.6
		c0.6-0.4,1.2-0.9,1.8-1.5v1.8h3.1v-8.8c0-0.6,0-1.3-0.1-1.8C188.1,22.1,187.9,21.6,187.7,21z M184.3,28.8c-0.1,0.2-0.3,0.4-0.6,0.8
		c-0.3,0.4-0.6,0.6-1.1,0.8c-0.4,0.2-1,0.4-1.7,0.4c-0.4,0-0.8-0.1-1.1-0.2s-0.5-0.3-0.7-0.6c-0.1-0.2-0.2-0.5-0.2-0.9
		c0-0.2,0.1-0.4,0.1-0.6s0.3-0.4,0.5-0.6c0.2-0.1,0.5-0.3,0.9-0.4c0.3-0.1,0.6-0.2,1.1-0.3c0.4-0.1,0.9-0.2,1.6-0.4
		c0.4-0.1,0.9-0.1,1.5-0.3c0,0.3,0,0.5-0.1,0.9C184.6,27.9,184.4,28.4,184.3,28.8z"/>
	<path class="st3" d="M196.2,22.4c0.5-0.4,1.1-0.6,1.9-0.6c0.6,0,1.3,0.2,1.8,0.6c0.5,0.4,0.9,1,1.1,1.7l3.6-0.9
		c-0.3-1.5-1.1-2.6-2.2-3.5c-1.1-0.9-2.6-1.3-4.3-1.3c-1.4,0-2.7,0.4-3.8,1c-1.1,0.6-1.9,1.6-2.5,2.7c-0.6,1.1-0.9,2.4-0.9,3.9
		c0,1.4,0.3,2.7,0.9,3.9c0.6,1.1,1.4,2.1,2.4,2.7c1.1,0.6,2.4,1,3.9,1c1.6,0,3.1-0.4,4.2-1.2c1.1-0.8,1.9-2,2.3-3.5l-3.7-0.8
		c-0.2,0.7-0.5,1.2-0.9,1.6c-0.4,0.4-1.1,0.6-1.9,0.6c-1.1,0-1.9-0.4-2.5-1.1c-0.6-0.8-0.9-1.8-0.9-3.1c0-0.8,0.1-1.5,0.4-2.1
		C195.3,23.2,195.7,22.7,196.2,22.4z"/>
	<path class="st3" d="M211.7,14.8H208v4h-2.4v2.8h2.4v5.5c0,0.9,0,1.6,0,2.3c0,0.7,0.2,1.4,0.6,2c0.4,0.7,0.9,1.2,1.7,1.5
		c0.7,0.3,1.6,0.5,2.6,0.5c0.9,0,1.9-0.1,2.9-0.2v-3c-0.9,0.1-1.6,0.1-2.4,0.1c-0.7-0.1-1.2-0.3-1.5-0.9c-0.1-0.3-0.3-0.6-0.3-1.1
		s0-0.9,0-1.5v-5.2h4.1v-2.8h-4.1V14.8z"/>
	<path class="st3" d="M228.5,19.4c-1.1-0.6-2.4-1-3.8-1c-1.4,0-2.6,0.3-3.8,0.9c-1.1,0.6-1.9,1.5-2.6,2.6c-0.6,1.1-0.9,2.4-0.9,3.9
		s0.3,2.8,0.9,3.9s1.4,2,2.6,2.7c1.1,0.6,2.4,1,3.8,1c1.4,0,2.7-0.4,3.8-1c1.1-0.6,1.9-1.5,2.6-2.6c0.6-1.1,0.9-2.4,0.9-3.9
		c0-1.5-0.3-2.8-0.9-3.9C230.4,20.9,229.6,20,228.5,19.4z M227.3,29c-0.6,0.8-1.4,1.1-2.6,1.1c-1.1,0-2-0.4-2.6-1.1
		c-0.6-0.8-0.9-1.8-0.9-3.1c0-0.9,0.1-1.6,0.4-2.2c0.2-0.6,0.6-1.1,1.1-1.5c0.5-0.4,1.1-0.5,1.9-0.5c1.1,0,2,0.4,2.6,1.1
		c0.6,0.8,0.9,1.8,0.9,3.1C228.2,27.2,227.9,28.2,227.3,29z"/>
	<path class="st3" d="M242,18.8c-0.4,0-0.9,0.1-1.3,0.2s-0.8,0.3-1.1,0.5c-0.4,0.3-0.9,0.6-1.1,1c-0.1,0.2-0.3,0.4-0.4,0.6v-2.3
		h-3.2v14.4h3.6v-7.4c0-0.6,0.1-1.1,0.2-1.5s0.4-0.8,0.6-1.1c0.3-0.4,0.6-0.6,1.1-0.8c0.4-0.2,0.9-0.4,1.4-0.4c0.5-0.1,1,0,1.4,0.1
		v-3.4C242.9,18.7,242.5,18.7,242,18.8z"/>
	<polygon class="st3" points="255,18.8 251.3,28.6 247.5,18.8 243.7,18.8 249.5,33.1 247.2,39.6 250.5,39.6 258.7,18.8 	"/>
</g>
</svg>
